<svg width="32" height="32" viewBox="0 0 32 32" xmlns="http://www.w3.org/2000/svg"><g fill="none" fill-rule="evenodd"><path d="M3.813 5.688h24.375c1.035 0 1.875.84 1.875 1.875v20.625c0 1.035-.84 1.875-1.875 1.875H3.813a1.876 1.876 0 0 1-1.876-1.875V7.563c0-1.035.84-1.875 1.875-1.875zM1.938 13.188h28.125M9.438 8.5V1.937M22.563 8.5V1.937" stroke="#404040" stroke-width="2.5" stroke-linecap="round" stroke-linejoin="round"/><g stroke="#404040" stroke-linecap="round" stroke-linejoin="round" stroke-width="1.5"><path d="M14.125 19.75l3.75 3.75M14.125 23.5l3.75-3.75"/></g><g stroke="#404040" stroke-linecap="round" stroke-linejoin="round" stroke-width="1.5"><path d="M6 19.75l3.75 3.75M6 23.5l3.75-3.75"/></g><path fill="#404040" d="M23.914 23.672l-2.42 1.272.463-2.693L20 20.343l2.704-.393 1.21-2.45 1.209 2.45 2.704.393-1.957 1.908.462 2.693z"/></g></svg>
